<svg width="10" height="9" viewBox="0 0 10 9" fill="none" xmlns="http://www.w3.org/2000/svg">
<path d="M9.77832 3.19336C9.75212 4.62083 8.70772 5.54304 7.69141 6.4248L7.30469 6.76367L6.90332 7.12207L6.89844 7.12695C6.78033 7.23978 6.65994 7.35017 6.53906 7.45996L6.54004 7.45898C6.54658 7.43283 6.55038 7.4042 6.55371 7.37598C6.56534 7.27729 6.57005 7.10771 6.57129 6.83789C6.6774 6.74441 6.74412 6.68805 6.78516 6.65527H6.78809C6.80391 6.64938 6.82796 6.63718 6.83691 6.63184C6.84246 6.62818 6.85181 6.62101 6.85547 6.61816C6.86751 6.60859 6.8761 6.59952 6.87695 6.59863C6.88452 6.59077 6.89086 6.58393 6.8916 6.58301C6.89382 6.58028 6.9064 6.56002 6.91992 6.5332C6.91906 6.53532 6.91855 6.53775 6.91797 6.53906C6.91387 6.54798 6.90993 6.55466 6.9082 6.55762C6.90467 6.56366 6.90155 6.56861 6.90039 6.57031C6.89475 6.57858 6.89041 6.58416 6.89453 6.5791C6.90287 6.56887 6.93428 6.5297 7.02441 6.42969C7.11522 6.34874 7.20043 6.26971 7.28125 6.19238C7.33586 6.15227 7.38694 6.12055 7.44141 6.08789C7.58385 6.00248 7.7464 5.90808 7.98633 5.67285L7.99512 5.66406L8.00391 5.65332C8.1602 5.4578 8.65158 4.79981 9.02344 4.2168C9.11208 4.07782 9.1953 3.93829 9.26758 3.80859C9.41266 3.64947 9.53622 3.5159 9.62305 3.41309L9.74121 3.26367L9.74707 3.25488C9.75996 3.23451 9.77012 3.21371 9.77832 3.19336ZM8.59668 3.63281C8.45172 3.88814 8.32132 4.11376 8.19727 4.32129C7.83128 4.70882 7.42029 5.14176 7.0127 5.56445C6.46912 6.12817 5.93487 6.67566 5.5332 7.08203C5.44017 7.17615 5.35346 7.26166 5.27637 7.33887C5.32813 7.00695 5.40951 6.57605 5.51953 6.15625C5.63393 5.71981 5.77476 5.31177 5.93457 5.03711C6.01509 4.89876 6.09069 4.81239 6.1543 4.76855C6.20881 4.73098 6.24539 4.7286 6.28418 4.74219L6.35645 4.53711L6.41895 4.35547C6.42366 4.36523 6.429 4.37628 6.43164 4.38965C6.43762 4.41994 6.43271 4.44599 6.42676 4.46289C6.41756 4.48878 6.40788 4.48938 6.43457 4.4668C6.4572 4.44769 6.49363 4.42266 6.54688 4.39258C6.76547 4.26911 7.14875 4.12391 7.57324 3.97754C7.91737 3.85888 8.29717 3.73501 8.59668 3.63281ZM0.21875 3.13086C0.193393 2.38627 0.464498 1.66195 0.97168 1.11621C1.4154 0.638837 2.00845 0.33197 2.64844 0.243164L2.92578 0.21875C3.28643 0.208442 3.64488 0.279272 3.97461 0.425781C4.30477 0.572517 4.59782 0.791301 4.83203 1.06641L4.99805 1.26172L5.16309 1.06641C5.3975 0.790398 5.69144 0.570638 6.02246 0.423828C6.35306 0.277238 6.71276 0.206445 7.07422 0.217773V0.21875C7.81866 0.247861 8.5211 0.570536 9.02832 1.11621C9.48698 1.60974 9.74958 2.24942 9.77734 2.91797C9.76175 2.872 9.74341 2.83081 9.72461 2.79883C9.66228 2.69295 9.56672 2.58786 9.49609 2.50879C9.44558 2.45224 9.40904 2.4078 9.38281 2.37402C9.42132 2.33097 9.45084 2.27845 9.45898 2.21289C9.47063 2.11899 9.43779 2.0379 9.41113 1.9873C9.36014 1.89061 9.27205 1.79363 9.20508 1.72266C9.24314 1.68649 9.28003 1.63179 9.27734 1.55078C9.27382 1.45012 9.20758 1.38978 9.19238 1.37598C9.14665 1.33445 9.08524 1.30423 9.04102 1.28516C8.98982 1.26309 8.93021 1.24309 8.87109 1.22656C8.81233 1.21014 8.74858 1.19556 8.6875 1.18848C8.63258 1.18212 8.555 1.17853 8.48242 1.2002C8.44428 1.21158 8.38898 1.23496 8.34473 1.28711C8.29557 1.34505 8.27856 1.41625 8.28418 1.48145C8.29337 1.58667 8.36144 1.67236 8.41211 1.72852C8.72444 2.07474 8.89873 2.52043 8.91113 2.9834L8.58691 3.09766L8.67578 3.14453C8.65513 3.15201 8.63369 3.16104 8.61133 3.16895C8.28876 3.28306 7.86577 3.41672 7.43164 3.56641C7.01274 3.71085 6.59167 3.86758 6.33301 4.01367C6.26715 4.05087 6.20478 4.09123 6.15332 4.13477C6.10605 4.17476 6.04675 4.2356 6.01758 4.31836C6.01366 4.32948 6.0115 4.34148 6.00879 4.35352C5.97379 4.36961 5.93945 4.38795 5.90723 4.41016C5.76765 4.50637 5.65411 4.65596 5.55957 4.81836C5.36934 5.14519 5.21661 5.59956 5.09961 6.0459C4.98156 6.4963 4.89494 6.95594 4.8418 7.30273C4.81524 7.47608 4.79714 7.62377 4.78711 7.72949C4.78667 7.73408 4.78654 7.73868 4.78613 7.74316C4.77382 7.75727 4.76248 7.77393 4.75293 7.79395C4.7038 7.89725 4.75234 7.98456 4.7627 8.00195C4.79149 8.05026 4.83192 8.07682 4.84473 8.08496C4.86946 8.10067 4.89905 8.11254 4.93164 8.12305L5 8.16699L5.03516 8.14355C5.07751 8.14808 5.12317 8.15043 5.17188 8.14551C5.4117 8.12121 5.72997 7.97198 6.12402 7.55664C6.13801 7.57546 6.15901 7.59859 6.1875 7.61719C6.21675 7.63619 6.26408 7.65474 6.32324 7.65137C6.00739 7.92982 5.68395 8.19957 5.35059 8.45703C5.2458 8.52396 5.12439 8.56055 5 8.56055C4.87533 8.56054 4.75338 8.52426 4.64844 8.45703C4.25816 8.1552 3.87965 7.83851 3.51367 7.50781L3.14844 7.16895L3.14355 7.16406L2.69727 6.76562L2.69629 6.76465C2.57181 6.65376 2.44669 6.54494 2.32422 6.43848C1.23829 5.4944 0.218826 4.59346 0.21875 3.13867H0.219727L0.21875 3.13086Z" fill="#FF0014" stroke="#FF0014" stroke-width="0.434629"/>
</svg>
