<svg width="10" height="9" viewBox="0 0 10 9" fill="none" xmlns="http://www.w3.org/2000/svg">
<path d="M6.90487 0.848739C7.46182 0.879528 7.98402 1.1292 8.35768 1.54333C8.73134 1.95747 8.92617 2.50251 8.89972 3.05968C8.89972 4.36133 7.77603 5.16087 6.69768 6.11974C5.63331 7.07013 5.06002 7.5896 4.87444 7.70951C4.67232 7.57859 3.96642 6.93708 3.05119 6.11974C1.96818 5.15706 0.849153 4.34989 0.849153 3.05968C0.822699 2.50251 1.01753 1.95747 1.39119 1.54333C1.76485 1.1292 2.28706 0.879528 2.844 0.848739C3.15252 0.839388 3.4582 0.910254 3.73113 1.05441C4.00407 1.19856 4.23493 1.41108 4.40115 1.67117C4.75707 2.16903 4.81639 2.41817 4.87571 2.41817C4.93503 2.41817 4.9935 2.16903 5.34603 1.6699C5.5113 1.4086 5.74225 1.19525 6.01579 1.05115C6.28934 0.907056 6.59591 0.83726 6.90487 0.848739ZM6.90487 0.00131081C6.52011 -0.0110079 6.13753 0.0636319 5.78561 0.219672C5.4337 0.375712 5.12151 0.609133 4.87232 0.90255C4.62333 0.609987 4.31179 0.377106 3.96072 0.221113C3.60964 0.0651207 3.228 -0.00999678 2.844 0.00131081C2.06219 0.0318826 1.3243 0.370782 0.791672 0.943902C0.259047 1.51702 -0.0249711 2.27773 0.00172525 3.05968C0.00172525 4.58928 1.0822 5.52866 2.12665 6.43668C2.24656 6.54091 2.36774 6.64599 2.48808 6.75319L2.92323 7.14216C3.39781 7.59374 3.89534 8.02057 4.41386 8.42093C4.55105 8.50976 4.711 8.55702 4.87444 8.55702C5.03787 8.55702 5.19782 8.50976 5.33501 8.42093C5.87003 8.00834 6.38288 7.56777 6.8714 7.10106L7.26206 6.75192C7.38621 6.64176 7.51205 6.53201 7.63705 6.42397C8.626 5.56595 9.74715 4.59352 9.74715 3.05968C9.77384 2.27773 9.48982 1.51702 8.9572 0.943902C8.42457 0.370782 7.68668 0.0318826 6.90487 0.00131081Z" fill="#262626"/>
</svg>
